<svg xmlns="http://www.w3.org/2000/svg" width="900" height="600" viewBox="0 0 900 600">
  <defs>
    <radialGradient id="bg" cx="50%" cy="35%" r="70%">
      <stop offset="0%" stop-color="#fff5f7"/>
      <stop offset="55%" stop-color="#ffe4ec"/>
      <stop offset="100%" stop-color="#f6d5dc"/>
    </radialGradient>
  </defs>

  <rect width="900" height="600" rx="18" fill="url(#bg)"/>

  <g opacity="0.6">
    <circle cx="220" cy="170" r="6" fill="#ff4f86"/>
    <circle cx="260" cy="210" r="4" fill="#7c3aed"/>
    <circle cx="610" cy="170" r="5" fill="#06b6d4"/>
    <circle cx="680" cy="230" r="4" fill="#f59e0b"/>
    <circle cx="520" cy="140" r="3" fill="#22c55e"/>
    <circle cx="430" cy="170" r="4" fill="#ff4f86"/>
    <circle cx="390" cy="230" r="3" fill="#7c3aed"/>
  </g>

  <g>
    <rect x="250" y="170" width="400" height="300" rx="10" fill="#ffffff" stroke="#f3b9c6" stroke-width="2"/>
    <path d="M450 190c90 0 162 72 162 162s-72 162-162 162-162-72-162-162 72-162 162-162z" fill="#ffe2ea"/>

    <g>
      <path d="M450 235c55 0 100 45 100 100 0 82-100 180-100 180s-100-98-100-180c0-55 45-100 100-100z" fill="#ff4f86" opacity="0.25"/>
      <path d="M450 275c42 0 76 34 76 76 0 62-76 136-76 136s-76-74-76-136c0-42 34-76 76-76z" fill="#7c3aed" opacity="0.18"/>
    </g>

    <text x="450" y="330" text-anchor="middle" font-family="ui-sans-serif, system-ui" font-size="28" font-weight="800" fill="#1a1a1a">Put your image here</text>
    <text x="450" y="365" text-anchor="middle" font-family="ui-sans-serif, system-ui" font-size="16" fill="#555">Replace assets/boom-placeholder.svg with a GIF/JPG</text>
  </g>
</svg>
